<svg width="24" height="24" viewBox="0 0 24 24" fill="none" xmlns="http://www.w3.org/2000/svg">
<path d="M20.1886 17.4369L19.0075 15.8152V9.76204C19.023 8.02902 18.4073 6.34959 17.2753 5.03729C16.1432 3.72499 14.5723 2.86953 12.8558 2.63061V1.71432C12.8558 1.48699 12.7655 1.26897 12.6047 1.10823C12.444 0.947484 12.226 0.857178 11.9986 0.857178C11.7713 0.857178 11.5533 0.947484 11.3926 1.10823C11.2318 1.26897 11.1415 1.48699 11.1415 1.71432V2.63061C9.42496 2.86953 7.85404 3.72499 6.72203 5.03729C5.59001 6.34959 4.97428 8.02902 4.98979 9.76204V15.8152L3.80864 17.4369C3.59216 17.7334 3.46236 18.0842 3.43376 18.4502C3.40515 18.8162 3.47886 19.1829 3.64664 19.5095C3.80622 19.8276 4.05095 20.0953 4.35361 20.2826C4.65627 20.47 5.00498 20.5697 5.36093 20.5706H8.69007C8.87716 21.3057 9.30384 21.9575 9.90269 22.423C10.5015 22.8885 11.2384 23.1412 11.9969 23.1412C12.7554 23.1412 13.4923 22.8885 14.0912 22.423C14.69 21.9575 15.1167 21.3057 15.3038 20.5706H18.6329C18.9889 20.5697 19.3376 20.47 19.6402 20.2826C19.9429 20.0953 20.1876 19.8276 20.3472 19.5095C20.5155 19.1833 20.5898 18.8167 20.5618 18.4507C20.5338 18.0847 20.4046 17.7337 20.1886 17.4369ZM11.9986 21.4286C11.6991 21.4277 11.405 21.348 11.1459 21.1976C10.8869 21.0471 10.6719 20.8312 10.5226 20.5715H13.4746C13.3254 20.8312 13.1104 21.0471 12.8514 21.1976C12.5923 21.348 12.2982 21.4277 11.9986 21.4286ZM18.8241 18.732C18.8084 18.7692 18.782 18.801 18.7483 18.8232C18.7146 18.8455 18.675 18.8573 18.6346 18.8572H5.36264C5.32225 18.8573 5.28271 18.8455 5.24901 18.8232C5.2153 18.801 5.18893 18.7692 5.17322 18.732C5.1492 18.6872 5.13846 18.6365 5.14226 18.5858C5.14605 18.5351 5.16423 18.4865 5.19464 18.4457L6.5395 16.5995C6.64642 16.4528 6.70404 16.2761 6.70407 16.0946V9.76204C6.68205 8.33433 7.22702 6.95614 8.2195 5.92959C9.21199 4.90304 10.571 4.3119 11.9986 4.28575C13.4263 4.3119 14.7853 4.90304 15.7778 5.92959C16.7703 6.95614 17.3152 8.33433 17.2932 9.76204V16.0946C17.2933 16.2761 17.3509 16.4528 17.4578 16.5995L18.8026 18.4457C18.8331 18.4865 18.8512 18.5351 18.855 18.5858C18.8588 18.6365 18.8481 18.6872 18.8241 18.732Z" fill="white"/>
</svg>
