<svg width="22" height="24" viewBox="0 0 22 24" fill="none" xmlns="http://www.w3.org/2000/svg">
<path d="M9.28421 11.1429C10.3014 11.1429 11.2957 10.8413 12.1414 10.2762C12.9872 9.71106 13.6463 8.90786 14.0356 7.96812C14.4248 7.02839 14.5267 5.99433 14.3283 4.99672C14.1298 3.9991 13.64 3.08273 12.9208 2.36349C12.2015 1.64425 11.2852 1.15444 10.2875 0.955999C9.28992 0.75756 8.25586 0.859406 7.31613 1.24866C6.37639 1.63791 5.57319 2.29708 5.00809 3.14282C4.44298 3.98856 4.14136 4.98288 4.14136 6.00004C4.14272 7.36359 4.68499 8.67091 5.64917 9.63508C6.61335 10.5993 7.92066 11.1415 9.28421 11.1429ZM9.28421 2.57147C9.96232 2.57147 10.6252 2.77255 11.189 3.14928C11.7529 3.52602 12.1923 4.06149 12.4518 4.68798C12.7113 5.31447 12.7792 6.00384 12.6469 6.66892C12.5146 7.334 12.1881 7.94491 11.7086 8.4244C11.2291 8.9039 10.6182 9.23044 9.9531 9.36273C9.28802 9.49502 8.59865 9.42712 7.97216 9.16762C7.34567 8.90812 6.8102 8.46868 6.43346 7.90485C6.05673 7.34102 5.85564 6.67814 5.85564 6.00004C5.85564 5.09072 6.21687 4.21865 6.85985 3.57567C7.50283 2.93269 8.3749 2.57147 9.28421 2.57147Z" fill="white"/>
<path d="M11.756 12.8572H6.81373C5.19631 12.8592 3.64573 13.5027 2.50212 14.6465C1.35852 15.7902 0.715254 17.3409 0.71344 18.9583C0.714574 20.0678 1.15581 21.1315 1.94033 21.916C2.72484 22.7005 3.78854 23.1418 4.89801 23.1429H13.6717C14.7813 23.1415 15.845 22.7001 16.6295 21.9155C17.414 21.1308 17.8552 20.067 17.8563 18.9575C17.8545 17.3401 17.2112 15.7895 16.0676 14.6459C14.9239 13.5023 13.3734 12.859 11.756 12.8572ZM13.6717 21.4286H4.89801C4.24298 21.4277 3.61505 21.167 3.15196 20.7038C2.68886 20.2405 2.42841 19.6125 2.42773 18.9575C2.42886 17.7946 2.89132 16.6796 3.71361 15.8573C4.5359 15.0351 5.65083 14.5726 6.81373 14.5715H11.756C12.919 14.5728 14.0339 15.0355 14.8562 15.8579C15.6784 16.6803 16.1409 17.7954 16.142 18.9583C16.1413 19.6133 15.8809 20.2412 15.4177 20.7043C14.9546 21.1674 14.3267 21.4279 13.6717 21.4286Z" fill="white"/>
<path d="M20.4282 9.42861H18.7139V7.71432C18.7139 7.48699 18.6236 7.26897 18.4628 7.10823C18.3021 6.94748 18.0841 6.85718 17.8567 6.85718C17.6294 6.85718 17.4114 6.94748 17.2506 7.10823C17.0899 7.26897 16.9996 7.48699 16.9996 7.71432V9.42861H15.2853C15.058 9.42861 14.84 9.51891 14.6792 9.67966C14.5185 9.8404 14.4282 10.0584 14.4282 10.2857C14.4282 10.5131 14.5185 10.7311 14.6792 10.8918C14.84 11.0526 15.058 11.1429 15.2853 11.1429H16.9996V12.8572C16.9996 13.0845 17.0899 13.3025 17.2506 13.4633C17.4114 13.624 17.6294 13.7143 17.8567 13.7143C18.0841 13.7143 18.3021 13.624 18.4628 13.4633C18.6236 13.3025 18.7139 13.0845 18.7139 12.8572V11.1429H20.4282C20.6555 11.1429 20.8735 11.0526 21.0343 10.8918C21.195 10.7311 21.2853 10.5131 21.2853 10.2857C21.2853 10.0584 21.195 9.8404 21.0343 9.67966C20.8735 9.51891 20.6555 9.42861 20.4282 9.42861Z" fill="white"/>
</svg>
