<svg width="24" height="24" viewBox="0 0 24 24" fill="none" xmlns="http://www.w3.org/2000/svg">
<path d="M12.0019 11.1429C13.019 11.1429 14.0133 10.8413 14.8591 10.2762C15.7048 9.71106 16.364 8.90786 16.7532 7.96812C17.1425 7.02839 17.2443 5.99433 17.0459 4.99672C16.8475 3.9991 16.3577 3.08273 15.6384 2.36349C14.9192 1.64425 14.0028 1.15444 13.0052 0.955999C12.0076 0.75756 10.9735 0.859406 10.0338 1.24866C9.09405 1.63791 8.29084 2.29708 7.72574 3.14282C7.16063 3.98856 6.85901 4.98288 6.85901 6.00004C6.86037 7.36359 7.40264 8.67091 8.36682 9.63508C9.331 10.5993 10.6383 11.1415 12.0019 11.1429ZM12.0019 2.57147C12.68 2.57147 13.3429 2.77255 13.9067 3.14928C14.4705 3.52602 14.91 4.06149 15.1695 4.68798C15.429 5.31447 15.4969 6.00384 15.3646 6.66892C15.2323 7.334 14.9057 7.94491 14.4262 8.4244C13.9467 8.9039 13.3358 9.23044 12.6707 9.36273C12.0057 9.49502 11.3163 9.42712 10.6898 9.16762C10.0633 8.90812 9.52785 8.46868 9.15111 7.90485C8.77438 7.34102 8.57329 6.67814 8.57329 6.00004C8.57329 5.09072 8.93452 4.21865 9.5775 3.57567C10.2205 2.93269 11.0926 2.57147 12.0019 2.57147Z" fill="white"/>
<path d="M14.4737 12.8572H9.53138C7.91396 12.8592 6.36338 13.5027 5.21978 14.6465C4.07617 15.7902 3.43291 17.3409 3.43109 18.9583C3.43223 20.0678 3.87346 21.1315 4.65798 21.916C5.44249 22.7005 6.50619 23.1418 7.61566 23.1429H16.3885C17.4982 23.1418 18.5621 22.7004 19.3468 21.9158C20.1315 21.1311 20.5728 20.0672 20.5739 18.9575C20.5721 17.3401 19.9288 15.7895 18.7852 14.6459C17.6416 13.5023 16.091 12.859 14.4737 12.8572ZM16.3885 21.4286H7.61566C6.96063 21.4277 6.3327 21.167 5.86961 20.7038C5.40651 20.2405 5.14606 19.6125 5.14538 18.9575C5.14651 17.7946 5.60897 16.6796 6.43126 15.8573C7.25355 15.0351 8.36849 14.5726 9.53138 14.5715H14.4737C15.6366 14.5731 16.7514 15.0358 17.5736 15.8582C18.3958 16.6805 18.8583 17.7954 18.8597 18.9583C18.8588 19.6134 18.5981 20.2413 18.1348 20.7044C17.6716 21.1675 17.0436 21.4279 16.3885 21.4286Z" fill="white"/>
</svg>
