<svg xmlns="http://www.w3.org/2000/svg" width="175" height="118" viewBox="0 0 175 118" fill="none"><g clip-path="url(#clip0_576_1196)"><path d="M58.9391 94.774C59.5543 93.1928 60.3197 91.8922 61.3516 90.7606C63.4636 88.4468 66.1272 87.201 69.1943 86.7887C71.5575 86.4707 73.9009 86.5924 76.1675 87.3951C79.6261 88.62 81.7689 91.1027 82.6746 94.5975C83.0552 96.0658 83.2471 97.6208 83.2646 99.1395C83.3315 104.877 83.2909 110.615 83.2909 116.353C83.2909 116.589 83.2909 116.826 83.2909 117.113H81.3631V116.426C81.3631 110.706 81.4048 104.987 81.3346 99.2678C81.3171 97.8061 81.1076 96.3027 80.7063 94.898C79.7325 91.4898 77.4154 89.4161 73.9272 88.7231C71.4588 88.2329 69.0079 88.37 66.6448 89.2506C62.8692 90.6575 60.6914 93.4779 59.8427 97.3412C59.5784 98.543 59.4819 99.8019 59.4731 101.037C59.4336 106.171 59.4567 111.306 59.4567 116.441V117.125H57.5113V116.471C57.5113 110.715 57.5157 104.959 57.508 99.2032C57.5059 97.5111 57.2635 95.8531 56.667 94.2608C55.5682 91.3308 53.4825 89.4918 50.4493 88.7966C47.8077 88.1913 45.1737 88.3338 42.6406 89.3251C38.9714 90.7606 36.8627 93.5536 36.049 97.3379C35.7935 98.5244 35.6937 99.7624 35.6849 100.979C35.6465 106.131 35.6685 111.284 35.6685 116.438C35.6685 116.654 35.6685 116.871 35.6685 117.125H33.7308V116.516C33.7308 106.867 33.7352 97.2194 33.7188 87.5706C33.7188 87.019 33.8503 86.8041 34.414 86.8754C34.7715 86.9203 35.1388 86.8841 35.572 86.8841V93.7871C35.6126 93.7981 35.652 93.808 35.6926 93.8189C35.7759 93.672 35.8659 93.5283 35.9415 93.377C37.9198 89.4447 41.1876 87.36 45.4708 86.7865C48.0994 86.4345 50.6873 86.633 53.148 87.7175C56.0002 88.9742 57.7932 91.1685 58.7165 94.1139C58.7691 94.2828 58.8283 94.4484 58.9391 94.7773V94.774Z" fill="white"></path><path d="M91.5176 102.284C91.4453 106.51 93.4893 111.402 98.2046 113.986C102.558 116.373 110.904 116.492 115.005 111.129C115.397 111.539 115.783 111.945 116.195 112.377C115.077 113.731 113.76 114.776 112.251 115.587C106.791 118.524 98.788 117.873 94.02 113.154C91.1689 110.333 89.8048 106.854 89.6172 102.888C89.4648 99.6683 90.0285 96.5924 91.6065 93.7489C94.4729 88.5818 99.7935 86.1639 105.339 86.7154C112.155 87.3931 117.104 92.6326 117.875 99.6442C117.968 100.494 117.988 101.352 118.046 102.283H91.5176V102.284ZM116.205 100.687C115.725 96.009 113.901 92.1534 109.691 89.912C105.216 87.5291 100.712 87.7956 96.5718 90.7805C93.248 93.1754 91.8389 96.6593 91.5253 100.687H116.205Z" fill="white"></path><path d="M1.97727 92.4562C1.645 92.0131 1.30726 91.5635 0.949769 91.0898C2.11215 89.9658 3.41708 89.1028 4.84264 88.4372C8.52826 86.7188 12.3773 86.1979 16.3754 86.9952C20.537 87.8253 23.3135 90.808 23.8596 95.0233C23.9813 95.9619 24.0581 96.9149 24.0603 97.8612C24.0778 104.092 24.069 110.323 24.068 116.554C24.068 116.732 24.0526 116.911 24.0427 117.125H22.1818V111.435L22.0744 111.405C21.8572 111.749 21.6522 112.101 21.4208 112.436C19.9053 114.628 17.8405 116.063 15.2843 116.758C11.8388 117.693 8.40435 117.648 5.08499 116.26C0.270983 114.247 -1.49671 108.408 1.40595 104.238C2.7372 102.324 4.70118 101.378 6.9119 100.962C8.24863 100.711 9.62485 100.581 10.9868 100.56C14.4553 100.505 17.9249 100.541 21.3945 100.541H22.1007C22.0853 97.8864 22.3595 95.2645 21.1938 92.7994C20.1279 90.547 18.3087 89.2212 15.9247 88.7563C10.8837 87.7737 6.32961 88.8769 2.35011 92.1809C2.25251 92.2621 2.15492 92.3443 2.05622 92.4255C2.04306 92.4364 2.02332 92.4386 1.97727 92.4573V92.4562ZM22.1084 102.147C21.9208 102.137 21.7958 102.124 21.6719 102.124C17.9655 102.124 14.2579 102.09 10.5526 102.143C9.41211 102.16 8.2585 102.334 7.14218 102.578C5.44028 102.947 3.93686 103.729 2.962 105.251C0.822565 108.59 2.24264 113.097 5.94581 114.733C8.12691 115.697 10.4275 115.861 12.7644 115.609C17.1715 115.137 20.2266 112.823 21.9669 108.755C22.0305 108.606 22.1018 108.443 22.1018 108.288C22.1105 106.261 22.1073 104.235 22.1073 102.147H22.1084Z" fill="white"></path><path d="M174.835 101.968C174.799 105.795 173.772 109.272 171.304 112.232C168.658 115.403 165.191 117.022 161.108 117.301C156.841 117.594 153.009 116.466 149.804 113.54C147.388 111.333 145.946 108.563 145.364 105.364C144.659 101.48 145.013 97.7042 146.924 94.1919C149.291 89.8384 153.016 87.4095 157.901 86.7757C161.271 86.3381 164.502 86.859 167.469 88.562C171.503 90.8758 173.749 94.4496 174.537 98.9785C174.708 99.9632 174.739 100.971 174.833 101.969L174.835 101.968ZM172.891 102.012C172.825 101.211 172.804 100.404 172.685 99.6123C172.16 96.1295 170.644 93.1918 167.813 91.0249C165.688 89.3987 163.256 88.6048 160.593 88.4896C157.357 88.3493 154.402 89.152 151.84 91.1774C149.256 93.2192 147.791 95.942 147.236 99.1528C146.62 102.719 147.003 106.171 148.846 109.332C151.271 113.492 155.02 115.497 159.771 115.572C163.849 115.636 167.312 114.16 169.911 110.944C172.006 108.353 172.847 105.315 172.892 102.013L172.891 102.012Z" fill="white"></path><path d="M126.48 117.133H124.614V73.8896H126.48V117.133Z" fill="white"></path><path d="M138.465 117.129H136.56V86.8843C137.116 86.8843 137.656 86.8711 138.195 86.8964C138.287 86.9007 138.412 87.0521 138.449 87.1606C138.494 87.2922 138.465 87.449 138.465 87.596C138.465 97.2273 138.465 106.859 138.465 116.49C138.465 116.688 138.465 116.886 138.465 117.129Z" fill="white"></path><path d="M139.393 77.0874C139.358 78.1346 138.46 78.9889 137.428 78.9571C136.367 78.9242 135.5 78.0316 135.539 77.0128C135.579 75.9426 136.488 75.107 137.565 75.1508C138.599 75.1936 139.427 76.0709 139.393 77.0885V77.0874Z" fill="white"></path><path d="M100.052 2.01143C98.7985 2.23844 97.5274 2.39746 96.2937 2.70562C91.3926 3.92732 86.6966 5.65349 82.5556 8.63426C78.7534 11.3716 75.5621 14.6693 73.4488 18.9057C70.7202 24.3771 70.3759 30.026 72.2764 35.8231C73.2722 38.8609 74.79 41.6311 76.8222 44.08C79.5244 47.336 83.1456 48.8143 87.2921 49.0665C90.0634 49.2343 92.6812 48.6586 94.9776 47.0234C97.2982 45.3718 98.8621 43.1763 99.4137 40.3502C99.5354 39.725 99.4806 39.0374 99.372 38.4025C99.2733 37.8267 98.8829 37.6534 98.3949 37.9704C97.7764 38.3728 97.1765 38.8455 96.6841 39.3928C95.163 41.0838 93.428 42.4218 91.2117 43.0644C86.9873 44.2883 82.901 41.9272 82.0248 37.7247C81.6201 35.7836 81.9261 33.9203 82.7212 32.1097C83.9824 29.2375 85.8456 26.9389 88.8571 25.8214C92.4301 24.4944 95.8583 25.0351 99.02 27.0442C103.59 29.9482 105.715 35.017 104.653 40.3655C103.522 46.054 100.463 50.3288 95.1049 52.7218C90.7346 54.6739 86.2185 54.63 81.7375 53.1089C75.3669 50.9451 70.842 46.6484 68.1343 40.5552C64.8936 33.2623 64.4111 25.7304 66.9488 18.1117C68.5839 13.2019 71.6097 9.21659 75.5215 5.8805C78.1086 3.67399 80.9731 1.89847 84.0449 0.456338C84.4123 0.284159 84.8367 0.192039 85.2435 0.148171C86.02 0.0659207 86.8041 0.0450839 87.5849 -0.000976562C87.5992 0.0461805 87.6135 0.0933376 87.6277 0.139398C87.347 0.255646 87.0662 0.374087 86.7855 0.488141C82.572 2.20225 78.7019 4.47456 75.3449 7.56938C70.4 12.1294 67.3776 17.6972 66.7064 24.4363C66.0923 30.6062 67.0595 36.5063 70.1171 41.9568C72.8116 46.7591 76.7333 50.2005 81.9722 51.9859C86.5596 53.5498 91.1623 53.5805 95.5359 51.2939C100.427 48.7364 102.982 44.4857 103.674 39.0934C104.37 33.6758 101.129 28.5718 95.9866 26.8248C91.0537 25.1491 86.2755 27.2153 84.0295 31.9759C83.2421 33.6462 82.7552 35.3548 83.0809 37.2213C83.6896 40.7121 86.803 42.8034 90.3354 42.0928C92.4498 41.6673 94.0948 40.485 95.5402 38.9431C96.1357 38.307 96.7521 37.66 97.4638 37.1709C98.9783 36.1312 100.386 36.8145 100.609 38.6459C100.835 40.5037 100.286 42.2068 99.3874 43.7849C97.0284 47.9304 93.36 49.9976 88.6663 50.1961C84.4112 50.376 80.5947 49.0863 77.3497 46.2865C75.6114 44.7862 74.4051 42.8539 73.2832 40.882C71.194 37.2137 70.0162 33.2667 69.9493 29.0346C69.8835 24.8508 70.9341 20.9346 73.0046 17.298C75.482 12.9475 78.9629 9.54231 83.1357 6.86422C87.5488 4.0315 92.429 2.32398 97.557 1.30407C97.6799 1.27994 97.8191 1.25691 97.9354 1.28981C98.6526 1.48941 99.3644 1.70655 100.078 1.91711L100.049 2.00923L100.052 2.01143Z" fill="white"></path><path d="M111.097 7.83586C109.22 7.46189 107.412 7.01116 105.576 6.75125C101.027 6.10859 96.5755 6.63061 92.2546 8.17035C87.2856 9.94148 83.0042 12.7325 79.6845 16.8889C78.4091 18.4857 77.3837 20.2272 76.8924 22.2385C76.6029 23.4229 76.5875 24.592 77.1775 25.7062C77.2762 25.8915 77.4078 26.0593 77.5482 26.2732C77.932 25.4485 78.2347 24.6688 78.6405 23.946C80.2361 21.1035 82.6401 19.1031 85.5408 17.7465C91.975 14.7394 98.5616 14.3359 105.188 17.0545C110.807 19.3608 114.414 23.5644 116.219 29.3428C117.267 32.6953 117.416 36.1115 117.054 39.5901C116.591 44.035 115.694 48.3614 113.815 52.4388C110.236 60.2099 104.214 64.9563 95.8989 66.8316C83.5174 69.6237 70.2081 65.1197 61.7374 55.0072C57.5426 49.9998 54.6956 44.2883 52.8039 38.0701C52.2994 36.412 51.7741 34.7549 51.3815 33.0682C51.2334 32.431 51.4319 31.7138 51.4725 31.0328C51.535 31.0152 51.5975 30.9977 51.66 30.9801C51.7763 31.1819 51.9342 31.3705 52.0022 31.5866C52.5308 33.2557 53.0747 34.9216 53.554 36.605C55.4688 43.3287 58.3903 49.5293 63.0381 54.8197C68.46 60.9907 75.2068 64.7973 83.3419 66.0859C89.1335 67.0038 94.777 66.4916 100.22 64.2544C105.364 62.1389 109.211 58.555 111.883 53.6945C114.162 49.5458 115.305 45.0527 115.819 40.383C116.049 38.2972 116.284 36.2069 116.039 34.098C115.623 30.5053 114.633 27.1176 112.514 24.1358C110.266 20.974 107.236 18.8432 103.581 17.6456C97.0372 15.5016 90.7072 16.0873 84.7172 19.4946C81.3635 21.4018 79.0726 24.1983 78.3477 28.1035C78.3378 28.1551 78.3093 28.2033 78.272 28.2977C76.6994 27.4236 75.7814 26.1306 75.6191 24.3419C75.447 22.4326 76.0315 20.69 76.9154 19.0417C78.7633 15.597 81.4743 12.942 84.67 10.7662C90.0174 7.12521 95.9384 5.27841 102.409 5.38259C104.331 5.4133 106.252 5.77411 108.167 6.02525C108.527 6.0724 108.891 6.26981 109.203 6.47488C109.854 6.90259 110.472 7.38183 111.098 7.83586H111.097Z" fill="white"></path><path d="M54.2744 22.1607C55.6968 24.5372 56.8417 26.9477 57.1718 29.6707C58.2499 38.5461 61.5596 46.4159 67.7756 52.9291C71.8333 57.1809 76.6576 60.2658 82.4338 61.5665C91.341 63.5723 99.0429 61.141 105.399 54.675C109.118 50.8914 110.917 46.1702 111.14 40.8733C111.339 36.1707 110.253 31.7917 107.542 27.9106C104.736 23.8945 100.901 21.6003 95.9328 21.4764C92.7393 21.3974 89.7859 22.3745 86.9455 23.7651C82.9426 25.726 80.5815 29.0687 79.2863 33.1735C78.0931 36.9538 79.237 40.2328 82.0324 42.9526C82.7485 43.649 83.5776 44.2302 84.3563 44.8619C84.455 44.942 84.5723 45.0012 84.6688 45.0834C84.9254 45.3006 85.0439 45.6131 84.7938 45.8412C84.626 45.9948 84.2038 46.1044 84.0481 46.0024C81.1035 44.0624 78.7106 41.6695 77.933 38.0647C77.4 35.5961 77.8497 33.2316 78.8553 30.9571C79.8346 28.7429 81.234 26.8106 82.9426 25.1064C84.7236 23.3297 86.9938 22.3943 89.2836 21.5279C92.1832 20.4301 95.1837 19.9958 98.2676 20.5201C102.091 21.1704 105.189 23.1005 107.601 26.0956C111.174 30.5294 112.554 35.6794 112.259 41.2988C112.008 46.0869 110.414 50.4144 107.394 54.1529C103.646 58.793 98.7567 61.6323 92.9652 62.8759C86.9916 64.159 81.3086 63.1139 75.9129 60.3821C69.436 57.1019 64.6303 52.0912 61.1133 45.7996C58.3518 40.859 56.7057 35.5511 56.0675 29.9295C55.8328 27.8601 55.0508 25.9793 54.1099 24.1522C53.6405 23.2409 53.6317 23.1773 54.2755 22.1618L54.2744 22.1607Z" fill="white"></path><path d="M123.592 25.5725C121.507 25.6811 120.744 26.5716 121.027 28.9602C121.171 30.1731 121.455 31.3706 121.573 32.5847C122.186 38.8796 121.729 45.0714 119.552 51.0571C116.632 59.087 111.317 64.9684 103.557 68.5655C96.6249 71.7788 89.3616 72.5026 81.8845 71.1581C73.2679 69.6085 65.8917 65.6352 59.7426 59.4302C58.0274 57.6986 56.5293 55.7476 54.9775 53.8602C54.6047 53.4062 54.3952 52.8118 54.1484 52.2645C54.0848 52.1231 54.1243 51.782 54.1791 51.7677C54.3831 51.7129 54.6584 51.6822 54.8218 51.782C55.0247 51.9059 55.1497 52.1636 55.2945 52.3742C58.1316 56.4813 61.5039 60.0762 65.5473 63.0131C72.225 67.8637 79.678 70.4606 87.9469 70.6174C94.5445 70.7425 100.737 69.2576 106.372 65.7559C113.07 61.5929 117.24 55.5447 119.318 48.004C120.841 42.48 120.977 36.8628 120.295 31.2061C120.197 30.3935 119.974 29.5951 119.87 28.7825C119.811 28.3175 119.832 27.8317 119.89 27.3645C120.084 25.8006 120.992 24.8794 122.534 24.5592C123.06 24.4495 123.377 24.5427 123.464 25.113C123.486 25.2545 123.541 25.3916 123.593 25.5736L123.592 25.5725Z" fill="white"></path><path d="M69.9494 4.83326C68.9031 6.16572 67.7812 7.44555 66.8238 8.83942C62.9745 14.4456 61.2955 20.7066 61.4359 27.4698C61.585 34.6629 63.7499 41.2627 67.5378 47.3295C68.7222 49.2267 70.4166 50.7193 72.1329 52.1483C75.674 55.0984 79.6703 57.1129 84.2731 57.6799C91.2074 58.5342 97.295 56.7105 102.087 51.4629C105.622 47.5927 106.975 42.9022 106.667 37.7116C106.613 36.8036 106.441 35.901 106.316 34.9974C106.263 34.6102 106.24 34.2286 106.729 34.1332C107.202 34.04 107.376 34.3635 107.446 34.7616C108.387 40.064 107.78 45.1197 104.845 49.7235C101.604 54.8055 96.8717 57.7304 90.9847 58.7086C83.5964 59.9369 77.114 57.7523 71.4431 53.0355C69.8386 51.7009 68.2758 50.2258 67.0487 48.5545C65.7436 46.7779 64.75 44.7435 63.8124 42.7311C61.9151 38.6603 60.779 34.3591 60.4225 29.8726C59.7602 21.5346 61.6355 13.8819 66.655 7.09571C66.7734 6.93559 66.8918 6.75574 67.052 6.64826C68.005 6.01219 68.97 5.39476 69.9307 4.77075L69.9494 4.83326Z" fill="white"></path><path d="M118.046 15.12C116.879 14.7175 115.714 14.3128 114.547 13.9114C111.441 12.8433 108.336 11.7751 105.09 11.1895C100.032 10.277 95.2891 11.0864 90.8673 13.7272C90.7894 13.7743 90.7093 13.8193 90.6315 13.8654C90.2937 14.065 89.9537 14.1132 89.7267 13.7338C89.4953 13.3466 89.707 13.0494 90.0524 12.8838C91.5132 12.1809 92.9411 11.3847 94.4578 10.8309C98.7019 9.28125 103.045 9.3953 107.34 10.5337C110.492 11.3693 113.59 12.4199 116.672 13.4903C117.265 13.6965 117.672 14.4389 118.165 14.9335C118.125 14.996 118.086 15.0574 118.046 15.12Z" fill="white"></path><path d="M94.3252 29.6335C94.7594 29.6972 95.5194 29.7893 96.2707 29.9264C96.887 30.0382 97.1513 30.3299 97.0263 30.7094C96.8475 31.25 96.422 31.1437 96.0261 31.0428C94.6344 30.6864 93.2383 30.6249 91.8752 31.1152C89.5053 31.9673 88.0269 33.609 87.6157 36.1379C87.5872 36.3167 87.5806 36.5031 87.5927 36.6841C87.6782 37.9135 88.3636 38.4124 89.5557 38.09C90.7818 37.7577 91.8017 37.0405 92.7426 36.2268C93.6244 35.4646 94.4557 34.6421 95.2891 33.8261C95.5852 33.5355 95.8802 33.3359 96.2257 33.6616C96.5701 33.9852 96.4077 34.3131 96.1215 34.6114C94.7572 36.0392 93.3447 37.4123 91.6284 38.4212C90.807 38.9049 89.9461 39.304 88.9613 39.3117C87.71 39.3216 86.8414 38.6581 86.5596 37.4265C86.2251 35.968 86.6353 34.6289 87.3722 33.393C88.8604 30.8958 91.0987 29.6774 94.3252 29.6346V29.6335Z" fill="white"></path><path d="M121.655 21.1573C120.35 20.7153 119.018 20.3424 117.747 19.8171C114.664 18.545 111.61 17.1994 108.542 15.8888C108.04 15.6739 107.526 15.4864 107.015 15.2922C106.4 15.0587 106.189 14.7922 106.369 14.4182C106.616 13.9082 107.02 14.0552 107.401 14.2164C110.053 15.3416 112.69 16.4975 115.354 17.5931C117.139 18.3278 118.949 19.0056 120.768 19.6526C121.46 19.8994 121.38 20.5804 121.794 20.9621C121.748 21.0268 121.702 21.0915 121.655 21.1562V21.1573Z" fill="white"></path></g><defs><clipPath id="clip0_576_1196"><rect width="174.85" height="117.315" fill="white"></rect></clipPath></defs></svg>