<svg width="24" height="24" viewBox="0 0 24 24" fill="none" xmlns="http://www.w3.org/2000/svg">
<path d="M14.5712 15.4285C14.3439 15.4285 14.1259 15.5188 13.9651 15.6796C13.8044 15.8403 13.7141 16.0584 13.7141 16.2857V19.0123L2.57122 21.24V2.75997L13.7141 4.98854V7.71425C13.7141 7.94158 13.8044 8.1596 13.9651 8.32034C14.1259 8.48109 14.3439 8.57139 14.5712 8.57139C14.7985 8.57139 15.0166 8.48109 15.1773 8.32034C15.3381 8.1596 15.4284 7.94158 15.4284 7.71425V4.28568C15.4284 4.08808 15.3602 3.89654 15.2352 3.74347C15.1103 3.5904 14.9363 3.4852 14.7426 3.44568L1.88551 0.874251C1.76096 0.848828 1.63231 0.851425 1.50889 0.881855C1.38547 0.912285 1.27036 0.969786 1.1719 1.05019C1.07345 1.1306 0.994108 1.2319 0.939632 1.34675C0.885156 1.4616 0.856908 1.58713 0.856934 1.71425V22.2857C0.856908 22.4128 0.885156 22.5383 0.939632 22.6532C0.994108 22.768 1.07345 22.8693 1.1719 22.9497C1.27036 23.0301 1.38547 23.0876 1.50889 23.1181C1.63231 23.1485 1.76096 23.1511 1.88551 23.1257L14.7426 20.5543C14.9363 20.5147 15.1103 20.4095 15.2352 20.2565C15.3602 20.1034 15.4284 19.9118 15.4284 19.7143V16.2857C15.4284 16.0584 15.3381 15.8403 15.1773 15.6796C15.0166 15.5188 14.7985 15.4285 14.5712 15.4285Z" fill="white"/>
<path d="M18.8569 11.1429H8.06892L10.8915 8.32029C11.0476 8.15863 11.134 7.94211 11.1321 7.71737C11.1301 7.49263 11.04 7.27765 10.8811 7.11873C10.7221 6.95981 10.5072 6.86966 10.2824 6.86771C10.0577 6.86576 9.84116 6.95215 9.6795 7.10829L5.39378 11.394C5.23309 11.5547 5.14282 11.7727 5.14282 12C5.14282 12.2273 5.23309 12.4453 5.39378 12.606L9.6795 16.8917C9.84116 17.0479 10.0577 17.1342 10.2824 17.1323C10.5072 17.1303 10.7221 17.0402 10.8811 16.8813C11.04 16.7224 11.1301 16.5074 11.1321 16.2826C11.134 16.0579 11.0476 15.8414 10.8915 15.6797L8.06892 12.8571H18.8569C19.0843 12.8571 19.3023 12.7668 19.463 12.6061C19.6238 12.4453 19.7141 12.2273 19.7141 12C19.7141 11.7727 19.6238 11.5547 19.463 11.3939C19.3023 11.2332 19.0843 11.1429 18.8569 11.1429Z" fill="white"/>
</svg>
