<svg width="24" height="24" viewBox="0 0 24 24" fill="none" xmlns="http://www.w3.org/2000/svg">
<g clip-path="url(#clip0_1_764)">
<path d="M1.71385 23.143C1.57811 23.1429 1.44433 23.1105 1.32353 23.0486C1.20273 22.9867 1.09837 22.897 1.01902 22.7868C0.939681 22.6767 0.887633 22.5493 0.867163 22.4151C0.846693 22.2809 0.858387 22.1438 0.901282 22.015L1.93842 18.9044C2.20344 18.1541 2.17466 17.3312 1.85785 16.6013C1.13459 15.0124 0.795093 13.2758 0.866791 11.5316C0.93849 9.78739 1.41937 8.08448 2.2706 6.56039C3.12183 5.03631 4.31954 3.73377 5.76703 2.75795C7.21451 1.78214 8.87119 1.16041 10.6033 0.942963C12.3126 0.725675 14.049 0.907743 15.676 1.47486C17.303 2.04197 18.7764 2.97868 19.9803 4.21138C21.1842 5.44407 22.0858 6.93916 22.6143 8.57915C23.1427 10.2191 23.2837 11.9594 23.0261 13.663C22.7684 15.3667 22.1192 16.9874 21.1294 18.3978C20.1396 19.8082 18.8362 20.9698 17.3217 21.7914C15.8071 22.613 14.1227 23.0722 12.4007 23.1328C10.6787 23.1935 8.96617 22.854 7.39757 22.141C6.66729 21.8251 5.84459 21.7969 5.09442 22.0621L1.98471 23.0984C1.89745 23.1279 1.80596 23.143 1.71385 23.143ZM6.177 20.1678C6.84367 20.165 7.50305 20.3066 8.10985 20.5827C9.43751 21.1849 10.8867 21.4711 12.3437 21.4187C13.8006 21.3663 15.2255 20.9767 16.5065 20.2807C17.7874 19.5846 18.8895 18.601 19.7262 17.4071C20.5628 16.2132 21.1112 14.8415 21.3282 13.3999C21.5453 11.9583 21.4251 10.486 20.9771 9.09867C20.529 7.71135 19.7654 6.44682 18.7462 5.40445C17.727 4.36208 16.4799 3.57025 15.103 3.0912C13.7261 2.61214 12.2568 2.45891 10.8107 2.64354C9.346 2.82828 7.94523 3.35477 6.72144 4.18051C5.49765 5.00625 4.48512 6.10812 3.76555 7.39719C3.04597 8.68627 2.63951 10.1265 2.57897 11.6015C2.51842 13.0766 2.80549 14.5453 3.417 15.889C3.91489 17.0132 3.96758 18.2845 3.56442 19.4461L3.069 20.9307L4.55357 20.4361C5.07674 20.2599 5.62494 20.1693 6.177 20.1678Z" fill="white"/>
<path d="M16.2844 10.2858H7.71298C7.48565 10.2858 7.26763 10.1955 7.10689 10.0348C6.94614 9.87402 6.85583 9.656 6.85583 9.42868C6.85583 9.20135 6.94614 8.98333 7.10689 8.82258C7.26763 8.66184 7.48565 8.57153 7.71298 8.57153H16.2844C16.5117 8.57153 16.7298 8.66184 16.8905 8.82258C17.0512 8.98333 17.1416 9.20135 17.1416 9.42868C17.1416 9.656 17.0512 9.87402 16.8905 10.0348C16.7298 10.1955 16.5117 10.2858 16.2844 10.2858Z" fill="white"/>
<path d="M11.9987 14.5715H7.71298C7.48565 14.5715 7.26763 14.4812 7.10689 14.3204C6.94614 14.1597 6.85583 13.9416 6.85583 13.7143C6.85583 13.487 6.94614 13.269 7.10689 13.1082C7.26763 12.9475 7.48565 12.8572 7.71298 12.8572H11.9987C12.226 12.8572 12.444 12.9475 12.6048 13.1082C12.7655 13.269 12.8558 13.487 12.8558 13.7143C12.8558 13.9416 12.7655 14.1597 12.6048 14.3204C12.444 14.4812 12.226 14.5715 11.9987 14.5715Z" fill="white"/>
</g>
<defs>
<clipPath id="clip0_1_764">
<rect width="24" height="24" fill="white"/>
</clipPath>
</defs>
</svg>
