<svg width="49" height="48" viewBox="0 0 49 48" fill="none" xmlns="http://www.w3.org/2000/svg">
<path d="M32.5738 1.34533C31.7359 1.49709 30.8861 1.60339 30.0613 1.80941C26.7849 2.62613 23.6456 3.78011 20.8772 5.7728C18.3354 7.60274 16.2019 9.80731 14.7891 12.6395C12.9651 16.2971 12.7349 20.0736 14.0054 23.949C14.6711 25.9798 15.6858 27.8317 17.0443 29.4689C18.8508 31.6456 21.2716 32.6339 24.0437 32.8025C25.8963 32.9147 27.6464 32.5298 29.1816 31.4366C30.7329 30.3325 31.7784 28.8647 32.1471 26.9754C32.2285 26.5575 32.1919 26.0979 32.1193 25.6734C32.0533 25.2885 31.7923 25.1726 31.4661 25.3845C31.0526 25.6536 30.6515 25.9695 30.3223 26.3354C29.3055 27.4659 28.1456 28.3603 26.6639 28.79C23.8399 29.6082 21.1081 28.0297 20.5224 25.2203C20.2518 23.9226 20.4564 22.677 20.9879 21.4666C21.831 19.5464 23.0766 18.0098 25.0899 17.2627C27.4785 16.3756 29.7703 16.737 31.8839 18.0801C34.939 20.0215 36.3598 23.4101 35.6494 26.9857C34.8935 30.7885 32.8488 33.6463 29.2666 35.2461C26.345 36.5511 23.3259 36.5217 20.3303 35.5049C16.0714 34.0584 13.0465 31.1859 11.2363 27.1125C9.06987 22.2371 8.74728 17.2018 10.4438 12.1087C11.5369 8.82636 13.5597 6.1621 16.1748 3.93187C17.9043 2.45678 19.8193 1.26981 21.8728 0.305722C22.1184 0.190618 22.4021 0.129034 22.6741 0.0997081C23.1932 0.044722 23.7174 0.0307922 24.2394 0C24.2489 0.0315253 24.2585 0.0630507 24.268 0.0938429C24.0803 0.171556 23.8926 0.250736 23.705 0.326984C20.8882 1.47289 18.3009 2.99197 16.0568 5.06092C12.751 8.10934 10.7304 11.8315 10.2818 16.3367C9.8712 20.4614 10.5178 24.4057 12.5618 28.0495C14.3632 31.2599 16.9849 33.5606 20.4872 34.7541C23.5539 35.7996 26.6309 35.8201 29.5547 34.2915C32.8246 32.5818 34.5328 29.7401 34.9954 26.1352C35.4602 22.5135 33.2938 19.1014 29.8561 17.9335C26.5584 16.8133 23.364 18.1945 21.8626 21.3771C21.3362 22.4937 21.0106 23.6359 21.2284 24.8838C21.6353 27.2174 23.7167 28.6155 26.0781 28.1404C27.4917 27.8559 28.5914 27.0656 29.5577 26.0348C29.9558 25.6096 30.3678 25.177 30.8436 24.85C31.8561 24.155 32.7974 24.6118 32.9463 25.8361C33.0973 27.0781 32.73 28.2166 32.1296 29.2716C30.5526 32.0429 28.1002 33.4249 24.9623 33.5576C22.1177 33.6779 19.5663 32.8157 17.397 30.944C16.2349 29.941 15.4285 28.6492 14.6784 27.331C13.2818 24.8786 12.4944 22.24 12.4497 19.4108C12.4057 16.6139 13.108 13.9958 14.4922 11.5647C16.1484 8.65627 18.4754 6.37985 21.265 4.5895C24.2152 2.69578 27.4777 1.55427 30.9059 0.872445C30.988 0.856316 31.0812 0.84092 31.1589 0.862915C31.6383 0.996347 32.1142 1.14151 32.5914 1.28227L32.5716 1.34386L32.5738 1.34533Z" fill="white"/>
<path d="M39.9568 5.23903C38.7024 4.98903 37.4934 4.68771 36.2661 4.51395C33.225 4.08433 30.2492 4.4333 27.3606 5.46264C24.0387 6.64668 21.1765 8.51254 18.9572 11.2912C18.1046 12.3586 17.4191 13.5229 17.0906 14.8675C16.8971 15.6593 16.8868 16.4408 17.2812 17.1857C17.3472 17.3096 17.4352 17.4217 17.5291 17.5647C17.7857 17.0134 17.988 16.4921 18.2593 16.009C19.326 14.1087 20.9331 12.7714 22.8722 11.8645C27.1736 9.8542 31.5769 9.5844 36.0066 11.4019C39.7632 12.9437 42.1745 15.7538 43.3813 19.6168C44.0815 21.858 44.1812 24.1418 43.9392 26.4673C43.6298 29.4388 43.0301 32.331 41.7742 35.0569C39.3812 40.252 35.3555 43.425 29.7968 44.6787C21.5196 46.5453 12.6221 43.5343 6.95927 36.7739C4.15498 33.4264 2.25172 29.6081 0.987045 25.4512C0.649797 24.3427 0.29862 23.2349 0.0361529 22.1073C-0.062822 21.6813 0.069879 21.2019 0.0970054 20.7466C0.138795 20.7348 0.180584 20.7231 0.222373 20.7114C0.300087 20.8463 0.405659 20.9724 0.451115 21.1168C0.804492 22.2327 1.16813 23.3463 1.48852 24.4717C2.76859 28.9666 4.7217 33.1118 7.82878 36.6485C11.4535 40.774 15.9638 43.3187 21.4023 44.1802C25.274 44.7938 29.0468 44.4514 32.6854 42.9558C36.1246 41.5416 38.6965 39.1456 40.4824 35.8963C42.0059 33.1228 42.7698 30.1191 43.1137 26.9974C43.2677 25.6029 43.4245 24.2056 43.2611 22.7957C42.9825 20.3939 42.3212 18.1292 40.904 16.1358C39.4018 14.0221 37.3761 12.5976 34.9325 11.797C30.5578 10.3637 26.3261 10.7552 22.3216 13.0331C20.0797 14.3081 18.5481 16.1776 18.0635 18.7883C18.0569 18.8228 18.0379 18.855 18.0129 18.9181C16.9616 18.3338 16.348 17.4694 16.2394 16.2736C16.1243 14.9972 16.5151 13.8323 17.106 12.7303C18.3414 10.4275 20.1537 8.65257 22.2901 7.198C25.8649 4.76395 29.8232 3.52933 34.1488 3.59898C35.434 3.61951 36.7177 3.86072 37.9985 4.02861C38.239 4.06013 38.4824 4.1921 38.6906 4.3292C39.1261 4.61513 39.5389 4.93551 39.9575 5.23903H39.9568Z" fill="white"/>
<path d="M1.96983 14.8154C2.92072 16.4041 3.68613 18.0156 3.90681 19.836C4.62749 25.7694 6.84013 31.0304 10.9956 35.3846C13.7083 38.227 16.9334 40.2893 20.7949 41.1589C26.7495 42.4998 31.8984 40.8744 36.1477 36.5518C38.6338 34.0224 39.8362 30.8662 39.9857 27.3251C40.1184 24.1814 39.3926 21.2539 37.5803 18.6593C35.7041 15.9745 33.1403 14.4408 29.8192 14.3579C27.6842 14.3051 25.7099 14.9584 23.811 15.888C21.135 17.1989 19.5566 19.4335 18.6907 22.1777C17.8931 24.7048 18.6577 26.8969 20.5265 28.7151C21.0053 29.1807 21.5595 29.5693 22.0801 29.9916C22.146 30.0451 22.2245 30.0847 22.289 30.1396C22.4606 30.2848 22.5397 30.4938 22.3726 30.6463C22.2604 30.7489 21.9782 30.8222 21.8741 30.754C19.9056 29.4571 18.3058 27.8574 17.786 25.4475C17.4297 23.7972 17.7303 22.2165 18.4026 20.696C19.0573 19.2158 19.9928 17.9239 21.135 16.7846C22.3257 15.5969 23.8433 14.9716 25.3741 14.3924C27.3125 13.6585 29.3184 13.3682 31.38 13.7186C33.9358 14.1534 36.0069 15.4437 37.6199 17.4459C40.0084 20.41 40.9308 23.8529 40.7335 27.6096C40.5656 30.8105 39.5004 33.7035 37.4813 36.2028C34.9754 39.3047 31.707 41.2028 27.8353 42.0342C23.8418 42.892 20.0426 42.1933 16.4356 40.3671C12.1056 38.1742 8.89294 34.8245 6.54174 30.6184C4.69567 27.3156 3.59522 23.7671 3.16853 20.009C3.01163 18.6256 2.4889 17.3682 1.85986 16.1468C1.54607 15.5376 1.54021 15.495 1.97056 14.8161L1.96983 14.8154Z" fill="white"/>
<path d="M48.3095 17.0964C46.9158 17.1689 46.4055 17.7643 46.5947 19.361C46.6907 20.1719 46.8806 20.9725 46.9598 21.7841C47.3696 25.9924 47.0639 30.1317 45.6086 34.1332C43.6562 39.5013 40.1034 43.4332 34.9156 45.8379C30.2814 47.9861 25.4258 48.4699 20.4272 47.5711C14.6668 46.5352 9.73569 43.879 5.62494 39.7308C4.47829 38.5732 3.47681 37.2689 2.43941 36.0072C2.19014 35.7036 2.05011 35.3063 1.88515 34.9404C1.84263 34.8459 1.86902 34.6178 1.90568 34.6083C2.04205 34.5717 2.22607 34.5511 2.33531 34.6178C2.47094 34.7007 2.55452 34.873 2.65129 35.0137C4.54794 37.7594 6.80237 40.1626 9.50549 42.126C13.9696 45.3687 18.9521 47.1048 24.48 47.2097C28.8906 47.2932 33.0307 46.3006 36.7976 43.9596C41.275 41.1766 44.0631 37.1333 45.4524 32.0922C46.47 28.3993 46.561 24.6441 46.1049 20.8625C46.0397 20.3193 45.8909 19.7855 45.8212 19.2423C45.7816 18.9314 45.7955 18.6066 45.8344 18.2943C45.9642 17.2489 46.5712 16.633 47.602 16.4189C47.9539 16.3456 48.1658 16.4079 48.2237 16.7892C48.2384 16.8837 48.2751 16.9754 48.3102 17.0971L48.3095 17.0964Z" fill="white"/>
<path d="M12.4488 3.23173C11.7494 4.1225 10.9994 4.97809 10.3593 5.90992C7.78598 9.65777 6.66353 13.8433 6.75738 18.3646C6.85708 23.1733 8.30432 27.5854 10.8366 31.6412C11.6284 32.9095 12.7611 33.9074 13.9085 34.8626C16.2758 36.8348 18.9474 38.1816 22.0244 38.5606C26.6601 39.1318 30.7298 37.9125 33.9337 34.4044C36.2966 31.8171 37.2013 28.6815 36.9953 25.2115C36.9594 24.6044 36.8443 24.0011 36.7607 23.3969C36.7248 23.1381 36.7094 22.883 37.0364 22.8192C37.3531 22.7569 37.4689 22.9732 37.5158 23.2393C38.1449 26.7841 37.7395 30.1639 35.7768 33.2417C33.6104 36.6391 30.4468 38.5944 26.5113 39.2483C21.5721 40.0695 17.2385 38.609 13.4473 35.4558C12.3748 34.5635 11.33 33.5774 10.5096 32.4601C9.63718 31.2724 8.97295 29.9124 8.34611 28.5671C7.07776 25.8457 6.31822 22.9703 6.07995 19.971C5.63713 14.3968 6.89081 9.28093 10.2464 4.74421C10.3256 4.63717 10.4048 4.51694 10.5118 4.44509C11.1489 4.01986 11.7941 3.6071 12.4363 3.18994L12.4488 3.23173Z" fill="white"/>
<path d="M44.6024 10.1086C43.8224 9.83954 43.043 9.56901 42.263 9.30068C40.1867 8.58659 38.1111 7.8725 35.941 7.481C32.5598 6.87103 29.3889 7.41209 26.4328 9.17751C26.3808 9.20903 26.3273 9.23909 26.2752 9.26988C26.0494 9.40332 25.8221 9.43558 25.6704 9.18191C25.5157 8.92311 25.6572 8.72442 25.8881 8.61372C26.8647 8.14377 27.8192 7.6115 28.8332 7.24126C31.6704 6.20533 34.5737 6.28158 37.4454 7.04258C39.5525 7.60124 41.6237 8.3036 43.6838 9.01915C44.0804 9.15698 44.3524 9.65332 44.6816 9.98397C44.6552 10.0258 44.6288 10.0668 44.6024 10.1086Z" fill="white"/>
<path d="M28.7449 19.811C29.0352 19.8536 29.5433 19.9151 30.0455 20.0068C30.4575 20.0816 30.6342 20.2766 30.5506 20.5303C30.4311 20.8917 30.1466 20.8206 29.882 20.7531C28.9516 20.5149 28.0183 20.4738 27.107 20.8015C25.5227 21.3712 24.5344 22.4687 24.2595 24.1593C24.2404 24.2788 24.236 24.4035 24.2441 24.5244C24.3013 25.3463 24.7595 25.6799 25.5564 25.4643C26.3761 25.2422 27.0579 24.7627 27.6869 24.2187C28.2764 23.7092 28.8321 23.1593 29.3893 22.6139C29.5873 22.4196 29.7845 22.2861 30.0154 22.5039C30.2456 22.7202 30.1371 22.9394 29.9458 23.1388C29.0337 24.0934 28.0894 25.0113 26.9421 25.6857C26.3929 26.0091 25.8174 26.2759 25.159 26.2811C24.3225 26.2877 23.7419 25.8441 23.5534 25.0208C23.3298 24.0457 23.604 23.1505 24.0967 22.3243C25.0916 20.6549 26.5879 19.8404 28.7449 19.8118V19.811Z" fill="white"/>
<path d="M47.0147 14.1445C46.1422 13.849 45.2515 13.5998 44.4017 13.2486C42.3409 12.3981 40.299 11.4986 38.2484 10.6225C37.9126 10.4788 37.5688 10.3534 37.2272 10.2236C36.8159 10.0675 36.6751 9.88931 36.7953 9.63931C36.9603 9.2984 37.2308 9.39664 37.4852 9.50441C39.258 10.2566 41.0212 11.0294 42.802 11.7618C43.9956 12.253 45.2053 12.7061 46.4216 13.1386C46.8842 13.3036 46.8307 13.7589 47.107 14.014C47.0763 14.0573 47.0455 14.1005 47.0147 14.1438V14.1445Z" fill="white"/>
</svg>
