<svg width="52" height="52" viewBox="0 0 52 52" fill="none" xmlns="http://www.w3.org/2000/svg">
<circle cx="26" cy="26" r="26" fill="#165342"/>
<path d="M26.0022 25.1429C27.0194 25.1429 28.0137 24.8413 28.8595 24.2762C29.7052 23.7111 30.3644 22.9079 30.7536 21.9681C31.1429 21.0284 31.2447 19.9943 31.0463 18.9967C30.8478 17.9991 30.358 17.0827 29.6388 16.3635C28.9195 15.6442 28.0032 15.1544 27.0056 14.956C26.0079 14.7576 24.9739 14.8594 24.0341 15.2487C23.0944 15.6379 22.2912 16.2971 21.7261 17.1428C21.161 17.9886 20.8594 18.9829 20.8594 20C20.8607 21.3636 21.403 22.6709 22.3672 23.6351C23.3314 24.5993 24.6387 25.1415 26.0022 25.1429ZM26.0022 16.5715C26.6803 16.5715 27.3432 16.7725 27.907 17.1493C28.4709 17.526 28.9103 18.0615 29.1698 18.688C29.4293 19.3145 29.4972 20.0038 29.3649 20.6689C29.2326 21.334 28.9061 21.9449 28.4266 22.4244C27.9471 22.9039 27.3362 23.2304 26.6711 23.3627C26.006 23.495 25.3167 23.4271 24.6902 23.1676C24.0637 22.9081 23.5282 22.4687 23.1515 21.9048C22.7747 21.341 22.5737 20.6781 22.5737 20C22.5737 19.0907 22.9349 18.2187 23.5779 17.5757C24.2208 16.9327 25.0929 16.5715 26.0022 16.5715Z" fill="white"/>
<path d="M28.4742 26.8572H23.5319C21.9145 26.8592 20.3639 27.5027 19.2203 28.6465C18.0767 29.7902 17.4335 31.3409 17.4316 32.9583C17.4328 34.0678 17.874 35.1315 18.6585 35.916C19.443 36.7005 20.5067 37.1418 21.6162 37.1429H30.3891C31.4988 37.1418 32.5627 36.7004 33.3474 35.9158C34.132 35.1311 34.5734 34.0672 34.5745 32.9575C34.5727 31.3401 33.9294 29.7895 32.7858 28.6459C31.6421 27.5023 30.0916 26.859 28.4742 26.8572ZM30.3891 35.4286H21.6162C20.9612 35.4277 20.3333 35.167 19.8702 34.7038C19.4071 34.2405 19.1466 33.6125 19.1459 32.9575C19.1471 31.7946 19.6095 30.6796 20.4318 29.8573C21.2541 29.0351 22.369 28.5726 23.5319 28.5715H28.4742C29.6371 28.5731 30.7519 29.0358 31.5741 29.8582C32.3963 30.6805 32.8589 31.7954 32.8602 32.9583C32.8593 33.6134 32.5986 34.2413 32.1354 34.7044C31.6721 35.1675 31.0441 35.4279 30.3891 35.4286Z" fill="white"/>
</svg>
