<svg width="52" height="52" viewBox="0 0 52 52" fill="none" xmlns="http://www.w3.org/2000/svg">
<circle cx="26" cy="26" r="26" fill="#165342"/>
<g clip-path="url(#clip0_1_4252)">
<path d="M15.7139 37.143C15.5782 37.1429 15.4444 37.1105 15.3236 37.0486C15.2028 36.9867 15.0984 36.897 15.0191 36.7868C14.9397 36.6767 14.8877 36.5493 14.8672 36.4151C14.8468 36.2809 14.8584 36.1438 14.9013 36.015L15.9385 32.9044C16.2035 32.1541 16.1747 31.3312 15.8579 30.6013C15.1346 29.0124 14.7952 27.2758 14.8669 25.5316C14.9386 23.7874 15.4194 22.0845 16.2707 20.5604C17.1219 19.0363 18.3196 17.7338 19.7671 16.758C21.2146 15.7821 22.8713 15.1604 24.6033 14.943C26.3126 14.7257 28.049 14.9077 29.6761 15.4749C31.3031 16.042 32.7764 16.9787 33.9803 18.2114C35.1842 19.4441 36.0858 20.9392 36.6143 22.5792C37.1428 24.2191 37.2838 25.9594 37.0261 27.663C36.7685 29.3667 36.1193 30.9874 35.1295 32.3978C34.1397 33.8082 32.8363 34.9698 31.3218 35.7914C29.8072 36.613 28.1228 37.0722 26.4008 37.1328C24.6788 37.1935 22.9662 36.854 21.3976 36.141C20.6674 35.8251 19.8447 35.7969 19.0945 36.0621L15.9848 37.0984C15.8975 37.1279 15.806 37.143 15.7139 37.143ZM20.1771 34.1678C20.8437 34.165 21.5031 34.3066 22.1099 34.5827C23.4376 35.1849 24.8868 35.4711 26.3437 35.4187C27.8006 35.3663 29.2256 34.9767 30.5065 34.2807C31.7875 33.5846 32.8896 32.601 33.7262 31.4071C34.5629 30.2132 35.1113 28.8415 35.3283 27.3999C35.5454 25.9583 35.4251 24.486 34.9771 23.0987C34.5291 21.7113 33.7655 20.4468 32.7462 19.4045C31.727 18.3621 30.48 17.5703 29.103 17.0912C27.7261 16.6121 26.2569 16.4589 24.8108 16.6435C23.3461 16.8283 21.9453 17.3548 20.7215 18.1805C19.4977 19.0063 18.4852 20.1081 17.7656 21.3972C17.046 22.6863 16.6396 24.1265 16.579 25.6015C16.5185 27.0766 16.8055 28.5453 17.4171 29.889C17.915 31.0132 17.9676 32.2845 17.5645 33.4461L17.0691 34.9307L18.5536 34.4361C19.0768 34.2599 19.625 34.1693 20.1771 34.1678Z" fill="white"/>
<path d="M30.284 24.2858H21.7126C21.4853 24.2858 21.2673 24.1955 21.1065 24.0348C20.9458 23.874 20.8555 23.656 20.8555 23.4287C20.8555 23.2013 20.9458 22.9833 21.1065 22.8226C21.2673 22.6618 21.4853 22.5715 21.7126 22.5715H30.284C30.5114 22.5715 30.7294 22.6618 30.8901 22.8226C31.0509 22.9833 31.1412 23.2013 31.1412 23.4287C31.1412 23.656 31.0509 23.874 30.8901 24.0348C30.7294 24.1955 30.5114 24.2858 30.284 24.2858Z" fill="white"/>
<path d="M25.9983 28.5715H21.7126C21.4853 28.5715 21.2673 28.4812 21.1065 28.3204C20.9458 28.1597 20.8555 27.9416 20.8555 27.7143C20.8555 27.487 20.9458 27.269 21.1065 27.1082C21.2673 26.9475 21.4853 26.8572 21.7126 26.8572H25.9983C26.2257 26.8572 26.4437 26.9475 26.6044 27.1082C26.7652 27.269 26.8555 27.487 26.8555 27.7143C26.8555 27.9416 26.7652 28.1597 26.6044 28.3204C26.4437 28.4812 26.2257 28.5715 25.9983 28.5715Z" fill="white"/>
</g>
<defs>
<clipPath id="clip0_1_4252">
<rect width="24" height="24" fill="white" transform="translate(14 14)"/>
</clipPath>
</defs>
</svg>
