<svg width="52" height="52" viewBox="0 0 52 52" fill="none" xmlns="http://www.w3.org/2000/svg">
<path d="M34.1894 31.4369L33.0082 29.8152V23.762C33.0237 22.029 32.408 20.3496 31.276 19.0373C30.144 17.725 28.5731 16.8695 26.8565 16.6306V15.7143C26.8565 15.487 26.7662 15.269 26.6055 15.1082C26.4447 14.9475 26.2267 14.8572 25.9994 14.8572C25.772 14.8572 25.554 14.9475 25.3933 15.1082C25.2325 15.269 25.1422 15.487 25.1422 15.7143V16.6306C23.4257 16.8695 21.8548 17.725 20.7228 19.0373C19.5907 20.3496 18.975 22.029 18.9905 23.762V29.8152L17.8094 31.4369C17.5929 31.7334 17.4631 32.0842 17.4345 32.4502C17.4059 32.8162 17.4796 33.1829 17.6474 33.5095C17.807 33.8276 18.0517 34.0953 18.3543 34.2826C18.657 34.47 19.0057 34.5697 19.3617 34.5706H22.6908C22.8779 35.3057 23.3046 35.9575 23.9034 36.423C24.5023 36.8885 25.2392 37.1412 25.9977 37.1412C26.7562 37.1412 27.4931 36.8885 28.0919 36.423C28.6908 35.9575 29.1174 35.3057 29.3045 34.5706H32.6337C32.9896 34.5697 33.3383 34.47 33.641 34.2826C33.9436 34.0953 34.1884 33.8276 34.3479 33.5095C34.5162 33.1833 34.5905 32.8167 34.5625 32.4507C34.5345 32.0847 34.4053 31.7337 34.1894 31.4369ZM25.9994 35.4286C25.6998 35.4277 25.4057 35.348 25.1467 35.1976C24.8876 35.0471 24.6726 34.8312 24.5234 34.5715H27.4754C27.3261 34.8312 27.1112 35.0471 26.8521 35.1976C26.593 35.348 26.299 35.4277 25.9994 35.4286ZM32.8248 32.732C32.8091 32.7692 32.7827 32.801 32.749 32.8232C32.7153 32.8455 32.6758 32.8573 32.6354 32.8572H19.3634C19.323 32.8573 19.2834 32.8455 19.2497 32.8232C19.216 32.801 19.1897 32.7692 19.1739 32.732C19.1499 32.6872 19.1392 32.6365 19.143 32.5858C19.1468 32.5351 19.165 32.4865 19.1954 32.4457L20.5402 30.5995C20.6471 30.4528 20.7048 30.2761 20.7048 30.0946V23.762C20.6828 22.3343 21.2277 20.9561 22.2202 19.9296C23.2127 18.903 24.5717 18.3119 25.9994 18.2857C27.427 18.3119 28.786 18.903 29.7785 19.9296C30.771 20.9561 31.316 22.3343 31.294 23.762V30.0946C31.294 30.2761 31.3516 30.4528 31.4585 30.5995L32.8034 32.4457C32.8338 32.4865 32.852 32.5351 32.8558 32.5858C32.8596 32.6365 32.8488 32.6872 32.8248 32.732Z" fill="#165342"/>
<rect x="0.5" y="0.5" width="51" height="51" rx="25.5" stroke="#165342"/>
</svg>
