<?xml version="1.0" encoding="utf-8"?>
<!-- Generator: Adobe Illustrator 16.0.0, SVG Export Plug-In . SVG Version: 6.00 Build 0)  -->
<!DOCTYPE svg PUBLIC "-//W3C//DTD SVG 1.1//EN" "http://www.w3.org/Graphics/SVG/1.1/DTD/svg11.dtd">
<svg version="1.1" id="Layer_1" xmlns="http://www.w3.org/2000/svg" xmlns:xlink="http://www.w3.org/1999/xlink" x="0px" y="0px"
	 width="128px" height="128px" viewBox="0 0 128 128" enable-background="new 0 0 128 128" xml:space="preserve">
<g>
	<g>
		<g>
			<polygon fill="#282D33" points="17.43,111.625 23.236,89.913 25.728,87.381 28.579,90.186 26.828,91.966 23.103,105.895 
				36.699,102.113 38.444,100.337 41.297,103.142 38.802,105.68 			"/>
		</g>
		<g>
			<polygon fill="#282D33" points="82.514,61.215 79.66,58.413 108.793,28.735 98.809,18.563 69.729,48.19 66.874,45.388 
				98.809,12.853 114.398,28.735 			"/>
		</g>
		<g>
			<polygon fill="#282D33" points="39.397,105.147 23.81,89.264 75.821,36.275 78.677,39.077 29.414,89.264 39.397,99.437 
				88.608,49.301 91.464,52.103 			"/>
		</g>
		<g>
			<path fill="#282D33" d="M118.519,23.863l-2.855-2.801l4.596-4.684l-9.318-9.494l-4.544,4.63l-2.855-2.802l4.885-4.977
				c0.626-0.64,1.482-0.993,2.408-0.994c0.001,0,0.002,0,0.003,0c1.043,0,2.088,0.455,2.867,1.249l9.454,9.631
				c1.521,1.547,1.627,3.861,0.24,5.267L118.519,23.863z"/>
		</g>
	</g>
	<g>
		<polygon fill="#282D33" points="126.855,128 1.145,128 1.145,0 91.542,0 91.542,4 5.145,4 5.145,124 122.855,124 122.855,35.941 
			126.855,35.941 		"/>
	</g>
</g>
</svg>
