<svg width="25" height="24" viewBox="0 0 25 24" fill="none" xmlns="http://www.w3.org/2000/svg">
<path d="M22.798 1.43573C22.5294 1.15561 22.1843 0.960733 21.8057 0.875379C21.4271 0.790025 21.0317 0.817971 20.6689 0.955734L2.35859 7.76402C2.00743 7.89482 1.70381 8.12836 1.4873 8.43421C1.27079 8.74006 1.15143 9.10403 1.14477 9.4787C1.1381 9.85337 1.24446 10.2214 1.44996 10.5347C1.65546 10.8481 1.95059 11.0923 2.29688 11.2354L9.85002 14.358L12.3486 21.7097C12.4693 22.0713 12.6988 22.3867 13.0057 22.6129C13.3125 22.8391 13.6818 22.9649 14.0629 22.9732H14.1186C14.4901 22.9749 14.8534 22.8646 15.1612 22.6566C15.469 22.4487 15.707 22.1527 15.844 21.8074L23.2155 3.57602C23.3641 3.21777 23.4038 2.82362 23.3296 2.44291C23.2553 2.0622 23.0704 1.71185 22.798 1.43573ZM21.628 2.93402L14.2566 21.1663C14.2451 21.1948 14.2252 21.2191 14.1994 21.2358C14.1736 21.2525 14.1433 21.2609 14.1126 21.2597C14.0814 21.2613 14.0505 21.252 14.0254 21.2334C14.0002 21.2148 13.9823 21.1881 13.9746 21.1577L11.5215 13.9432L17.1443 8.32031C17.3004 8.15865 17.3868 7.94213 17.3849 7.71739C17.3829 7.49265 17.2928 7.27767 17.1339 7.11875C16.9749 6.95983 16.76 6.86968 16.5352 6.86773C16.3105 6.86578 16.094 6.95217 15.9323 7.10831L10.3369 12.7037L2.95088 9.65145C2.92303 9.63977 2.89933 9.62001 2.88284 9.59471C2.86635 9.56941 2.85784 9.53975 2.85839 9.50956C2.85894 9.47937 2.86854 9.45004 2.88595 9.42537C2.90336 9.40069 2.92777 9.38181 2.95602 9.37116L21.2672 2.56202C21.3006 2.54925 21.336 2.54257 21.3717 2.54231C21.4085 2.54274 21.4448 2.55056 21.4786 2.56528C21.5123 2.58 21.5427 2.60134 21.568 2.62802C21.6087 2.66641 21.6363 2.71655 21.647 2.77141C21.6578 2.82627 21.6512 2.88312 21.628 2.93402Z" fill="#165342"/>
</svg>
