<svg width="52" height="52" viewBox="0 0 52 52" fill="none" xmlns="http://www.w3.org/2000/svg">
<circle cx="26" cy="26" r="26" fill="#85A5A9"/>
<path d="M36 25.0801V26.0001C35.9988 28.1565 35.3005 30.2548 34.0093 31.9819C32.7182 33.7091 30.9033 34.9726 28.8354 35.584C26.7674 36.1954 24.5573 36.122 22.5345 35.3747C20.5117 34.6274 18.7847 33.2462 17.611 31.4372C16.4373 29.6281 15.8798 27.4882 16.0217 25.3364C16.1636 23.1847 16.9972 21.1364 18.3983 19.4972C19.7994 17.8579 21.6928 16.7155 23.7962 16.2403C25.8996 15.765 28.1003 15.9824 30.07 16.8601" stroke="white" stroke-width="1.8" stroke-linecap="round" stroke-linejoin="round"/>
<path d="M36 18L26 28.01L23 25.01" stroke="white" stroke-width="1.8" stroke-linecap="round" stroke-linejoin="round"/>
</svg>
